<?xml version="1.0" standalone="no"?>
<!DOCTYPE svg PUBLIC "-//W3C//DTD SVG 20010904//EN"
 "http://www.w3.org/TR/2001/REC-SVG-20010904/DTD/svg10.dtd">
<svg version="1.0" xmlns="http://www.w3.org/2000/svg"
 width="300.000000pt" height="300.000000pt" viewBox="0 0 300.000000 300.000000"
 preserveAspectRatio="xMidYMid meet">
<metadata>
Created by potrace 1.16, written by Peter Selinger 2001-2019
</metadata>
<g transform="translate(0.000000,300.000000) scale(0.100000,-0.100000)"
fill="#000000" stroke="none">
<path d="M627 2303 c-61 -9 -86 -115 -48 -198 23 -51 44 -68 81 -67 61 2 100
51 100 124 -1 63 -58 152 -95 147 -5 -1 -23 -4 -38 -6z"/>
<path d="M2327 1105 c-74 -26 -124 -95 -105 -145 17 -45 38 -60 85 -60 74 0
154 54 169 115 7 28 -30 91 -59 99 -32 8 -47 7 -90 -9z"/>
</g>
</svg>
